<?xml version="1.0" standalone="no"?>
<!DOCTYPE svg PUBLIC "-//W3C//DTD SVG 20010904//EN"
 "http://www.w3.org/TR/2001/REC-SVG-20010904/DTD/svg10.dtd">
<svg version="1.0" xmlns="http://www.w3.org/2000/svg"
 width="420.000000pt" height="392.000000pt" viewBox="0 0 420.000000 392.000000"
 preserveAspectRatio="xMidYMid meet">

<g transform="translate(0.000000,392.000000) scale(0.100000,-0.100000)"
fill="#000000" stroke="none">
<path d="M2270 2526 l0 -54 56 -32 c155 -87 236 -226 251 -430 20 -286 -131
-500 -392 -555 -39 -8 -123 -15 -192 -15 l-123 0 -2 298 -3 297 -55 0 -55 0
-3 -352 -2 -353 177 0 c197 0 274 9 377 45 181 63 322 221 370 416 20 83 21
260 1 354 -37 172 -143 311 -302 393 -44 23 -86 42 -92 42 -7 0 -11 -21 -11
-54z"/>
<path d="M1475 2399 c-3 -8 -4 -192 -3 -409 l3 -395 58 -3 57 -3 0 356 0 355
168 0 c106 0 192 -6 235 -15 86 -18 179 -68 223 -119 42 -49 74 -132 74 -191
l0 -45 60 0 c70 0 69 -1 46 111 -19 87 -43 134 -106 203 -57 61 -151 114 -255
142 -85 23 -552 33 -560 13z"/>
</g>
</svg>
